<svg xmlns="http://www.w3.org/2000/svg" fill="none" viewBox="0 0 520 520"><rect width="520" height="520" fill="#FE4D00" rx="260"/><path fill="#FFCFB9" d="M102.86 255.96a66.19 66.19 0 0 1 128.96-20.86 121.06 121.06 0 0 1 23.08-52.6A113.04 113.04 0 0 0 56 255.96h46.86ZM265.19 337.5a113.04 113.04 0 0 0 198.9-73.45h-46.86a66.19 66.19 0 0 1-128.97 20.86 121.07 121.07 0 0 1-23.07 52.59Z"/><path fill="#fff" d="M234.82 271.3a66.19 66.19 0 0 1-131.96-7.34H56a113.04 113.04 0 0 0 225.05 15.26l4.43-32.22a66.19 66.19 0 0 1 131.75 9.04h46.86a113.04 113.04 0 0 0-225.34-13l-3.93 28.26Z"/></svg>