<svg xmlns="http://www.w3.org/2000/svg" viewBox="0 0 48 48"><radialGradient id="a" cx="19.4" cy="42" r="44.9" gradientUnits="userSpaceOnUse"><stop offset="0" stop-color="#fd5"/><stop offset=".3" stop-color="#ff543f"/><stop offset=".3" stop-color="#fc5245"/><stop offset=".5" stop-color="#e64771"/><stop offset=".6" stop-color="#d53e91"/><stop offset=".8" stop-color="#cc39a4"/><stop offset=".8" stop-color="#c837ab"/></radialGradient><path fill="url(#a)" d="M34 42H14c-4 0-8-4-8-8V14c0-4 4-8 8-8h20c4 0 8 4 8 8v20c0 4-4 8-8 8z"/><radialGradient id="b" cx="11.8" cy="5.5" r="29.8" gradientTransform="matrix(1 0 0 .6663 0 2)" gradientUnits="userSpaceOnUse"><stop offset="0" stop-color="#4168c9"/><stop offset="1" stop-color="#4168c9" stop-opacity="0"/></radialGradient><path fill="url(#b)" d="M34 42H14c-4 0-8-4-8-8V14c0-4 4-8 8-8h20c4 0 8 4 8 8v20c0 4-4 8-8 8z"/><path fill="#fff" d="M24 31a7 7 0 1 1 0-14 7 7 0 0 1 0 14zm0-12a5 5 0 1 0 0 10 5 5 0 0 0 0-10z"/><circle cx="31.5" cy="16.5" r="1.5" fill="#fff"/><path fill="#fff" d="M30 37H18c-4 0-7-3-7-7V18c0-4 3-7 7-7h12c4 0 7 3 7 7v12c0 4-3 7-7 7zM18 13c-3 0-5 2-5 5v12c0 3 2 5 5 5h12c3 0 5-2 5-5V18c0-3-2-5-5-5H18z"/></svg>