<svg xmlns="http://www.w3.org/2000/svg" fill="none" viewBox="0 0 176 60"><path fill="#ffffff" d="M1 13h1.8V8.3h3c2.6 0 4-1.4 4-3.8S8.5.8 5.9.8H1v12.1Zm1.8-6.3V2.4h3c1.5 0 2.3.7 2.3 2.2 0 1.4-.8 2.1-2.4 2.1h-3Zm15.1 6.5c3.1 0 5.2-2.5 5.2-6.3C23 3 21 .5 17.9.5 14.8.5 12.7 3 12.7 7c0 3.8 2 6.3 5.2 6.3Zm0-1.7c-2.1 0-3.4-1.7-3.4-4.6 0-3 1.3-4.7 3.4-4.7 2.1 0 3.4 1.8 3.4 4.7 0 2.9-1.3 4.6-3.4 4.6ZM28.1 13h2L33 3.6l2.8 9.3h2L40.2.8h-1.8L36.6 10 33.8.8h-1.7L29.4 10 27.6.8h-1.8L28 12.9Zm15.5 0h7.5v-1.6h-5.7V7.5h5.2V5.9h-5.2V2.4h5.7V.8h-7.5v12.1ZM61 8.1a3.4 3.4 0 0 0 2.9-3.6c0-2.3-1.6-3.7-4.1-3.7H55v12.1h1.8V8.2H59l2.5 4.7h2L61 8.1Zm-4-1.6v-4h2.6c1.6 0 2.5.6 2.5 2 0 1.3-.9 2-2.5 2h-2.6ZM67.5 13h7.4v-1.6h-5.6V7.5h5.1V5.9h-5.1V2.4h5.6V.8h-7.4v12.1Zm11.4 0h3.9C86 13 88 11 88 7 88.1 3 86 .7 83 .7h-4v12.1Zm1.8-1.6V2.4h2.1c2.2 0 3.5 1.5 3.5 4.4 0 3.2-1.3 4.5-3.6 4.5h-2Zm17.6 1.6h4.5c3 0 4.4-1.2 4.4-3.6 0-1.4-.7-2.4-1.8-2.9.8-.4 1.4-1.3 1.4-2.4 0-2-1.5-3.2-3.6-3.2h-4.9v12.1Zm1.8-7V2.3h2.8c1.4 0 2 .6 2 1.7 0 1.2-.6 1.7-2 1.7h-2.8Zm0 5.4v-4h2.8c1.8 0 2.5.6 2.5 2s-.8 2-2.6 2h-2.7Zm13 1.6h1.8V8L119 .8h-2l-3 5.4h-.1L110.9.8h-2l4.2 7.1v5Z"/><path fill="#FC5200" fill-rule="evenodd" d="M93.7 57.7h9.3l5.7-11.5 5.7 11.5h11.3l-17-32.8-16.1 31.2-6.2-9c3.8-2 6.2-5.1 6.2-9.7 0-3.3-1-5.7-3-7.6-2.1-2.2-5.7-3.5-11.2-3.5H63v31.4h10.5v-9h2.3l5.9 9h12ZM158.5 25l-17 32.8h11.3l5.7-11.5 5.8 11.5h11.2l-17-32.8ZM133.6 59l17-32.8h-11.3l-5.7 11.5-5.7-11.5h-11.3l17 32.8ZM78.1 41.2c2.5 0 4-1.1 4-3V38c0-2-1.6-3-4-3h-4.6v6.1h4.6Zm-37.6-6h-9.3v-9h29v9H51v22.5H40.5V35.2ZM5.6 46.3 0 53c4 3.5 9.8 5.3 16.1 5.3 8.5 0 14-4 14-10.7 0-6.4-5.5-8.7-13.5-10.2-3.3-.6-4.2-1.2-4.2-2v-.1c0-.8.7-1.3 2.3-1.3 3 0 6.5 1 9.4 3l5.2-7A21.8 21.8 0 0 0 15 25.7c-8.7 0-13.4 4.6-13.4 10.6C1.7 43 8 45 15 46.6c3.3.7 4.3 1.1 4.3 2v.1c0 .9-.8 1.4-2.7 1.4a18 18 0 0 1-11-3.7Z" clip-rule="evenodd"/></svg>